# xmcd
#
# Track frame offsets:
#	150
#	15329
#	30142
#	53398
#	71466
#	89242
#	107175
#	126536
#	141282
#	155030
#
# Disc length: 2323 seconds
#
# Revision: 0
# Processed by: cddbd v1.5.2PL0 Copyright (c) Steve Scherf et al.
# Submitted via: dBpowerAMP V4.0
#
DISCID=8209110a
DTITLE=Gilles Des Côteaux - Le Train De Vie
DYEAR=2003
DGENRE=Country
TTITLE0=Ado-Ado
TTITLE1=Mic-Mac
TTITLE2=Quand T'es Pas La
TTITLE3=Coeur De Femme
TTITLE4=Noel Sur Terre
TTITLE5=Noel Au Troisieme Rang
TTITLE6=Je Te Donne
TTITLE7=Les Petites Choses
TTITLE8=Le Train De Vie
TTITLE9=T'en Sortiras
EXTD=Album enregistré en Janvier 2003 au studio Denis Champoux, à Cap-Rouge, Québec.\nLes paroles, la musique et les arrangements musicaux sont de Gilles Des Côteaux.\nMixage: Denis Champoux\nPhoto de l'album: Pierre Ferrer \nProposé par Clément Hébert
EXTT0=
EXTT1=
EXTT2=
EXTT3=
EXTT4=
EXTT5=
EXTT6=
EXTT7=
EXTT8=
EXTT9=
PLAYORDER=
